<svg width="365" height="364" viewBox="0 0 365 364" fill="none" xmlns="http://www.w3.org/2000/svg">
<path d="M168.997 0.735979C145.685 4.31928 125.712 13.6494 109.681 28.3206C94.3845 42.3834 84.0978 56.9871 78.9544 72.064C76.0822 80.5151 76.0822 81.056 79.6224 82.8139C81.1587 83.5576 83.363 84.3689 84.4986 84.6393C86.4357 85.045 86.5693 84.8421 88.2392 81.056C89.1744 78.8925 90.1763 76.1881 90.3767 75.1064C90.9779 72.4696 97.8579 58.0688 98.8599 57.5279C99.2607 57.2575 100.062 56.2433 100.663 55.2292C104.27 49.2796 111.418 41.5045 118.832 35.6225C134.73 22.8443 148.824 16.2862 167.193 13.1085C178.682 11.1478 193.912 11.6211 205.334 14.2579C226.709 19.1934 243.208 28.8615 257.903 45.0878C266.854 54.9588 270.929 61.5169 277.475 76.729C278.944 80.2447 280.681 83.4224 281.282 83.7604C282.017 84.2337 283.486 84.0984 286.225 83.1519L290.166 81.8673L290.099 79.163C289.966 73.2809 281.282 55.432 273.267 44.6821C269.125 39.2058 260.442 30.1461 254.764 25.481C239.534 12.8381 223.636 5.40103 203.664 1.41207C195.782 -0.142944 177.146 -0.480991 168.997 0.735979Z" fill="#235E25"/>
<path d="M178.816 28.1178C175.877 28.9967 172.337 32.3096 170.6 35.8253C166.926 43.1947 169.932 54.4179 176.211 57.2575C177.28 57.7308 178.348 58.7449 178.549 59.5562C178.749 60.2999 178.95 67.1285 178.95 74.7684V88.6283L175.276 84.7746C171.869 81.2589 171.602 80.718 171.602 77.6756C171.602 71.1851 166.793 64.1537 161.182 62.5987C157.107 61.4493 150.695 61.9902 148.357 63.748C143.614 67.3313 142.612 74.6331 145.952 80.9208C148.757 86.0591 151.429 87.8846 156.84 88.155C160.113 88.3579 161.983 88.0874 163.92 87.2085C165.39 86.5324 166.793 85.9915 166.993 85.9915C167.26 85.9239 168.663 87.5466 170.199 89.4396C171.736 91.4003 173.94 93.4962 175.142 94.1047C176.278 94.7132 177.413 95.3893 177.614 95.5245C177.814 95.7273 178.081 100.392 178.282 105.936C178.682 117.024 178.883 117.565 182.623 117.227C185.496 116.957 186.297 114.117 186.164 104.584L186.03 96.9443L189.036 94.7132C190.706 93.5638 193.511 91.0622 195.382 89.2368L198.722 85.9239L200.993 87.4113C203.932 89.4396 209.943 89.5748 213.617 87.6142C220.898 83.8956 224.772 72.5372 220.831 66.6552C218.36 62.8691 215.488 61.5845 209.543 61.5845C204.934 61.5845 204.199 61.7873 201.594 63.6128C196.985 66.9257 194.847 70.509 194.647 75.3768C194.513 79.4334 194.447 79.501 190.038 84.2337L185.629 88.9664V79.3658C185.629 74.0247 185.83 67.2637 186.097 64.2889C186.498 58.9477 186.564 58.8801 189.236 56.8518C197.386 50.6994 199.122 39.7467 192.977 32.7153C189.37 28.5235 183.625 26.6304 178.816 28.1178ZM185.963 36.6366C187.566 37.7184 188.969 40.7608 188.969 43.33C188.969 45.223 184.427 51.105 183.024 51.105C181.555 51.105 177.881 47.2513 177.013 44.8174C175.877 41.8425 176.144 40.4904 178.348 37.9212C180.686 35.2844 183.225 34.8112 185.963 36.6366ZM213.684 70.3737C215.554 73.4162 215.087 75.5121 212.014 78.6221C210.01 80.6504 209.409 80.9208 207.539 80.5152C204.132 79.7715 202.997 78.3517 202.997 74.9712C202.997 70.847 205.668 68.0074 209.543 68.0074C211.88 68.0074 212.415 68.2778 213.684 70.3737ZM159.645 70.6442C161.449 71.7935 163.052 73.4162 163.586 74.7007C164.388 76.6614 164.321 77.0671 163.119 78.6897C160.113 82.8139 155.905 82.1378 153.099 77.1347C151.229 73.8218 151.095 70.9822 152.832 70.1033C153.5 69.6976 154.235 69.63 154.502 69.8329C154.702 70.0357 154.903 69.9005 154.903 69.4948C154.903 68.2102 156.439 68.5483 159.645 70.6442Z" fill="#599128"/>
<path d="M242.807 89.3045C240.67 90.5891 237.531 92.6849 235.861 93.9695C234.124 95.1865 229.248 97.9585 225.04 100.122C201.794 111.818 194.246 118.309 190.305 129.938C187.433 138.254 186.698 142.986 186.765 153.736C186.765 159.415 186.965 164.216 187.166 164.419C188.034 165.365 195.115 161.106 200.325 156.441C207.606 150.018 208.274 148.53 208.741 138.457C209.209 126.625 209.543 124.799 210.945 124.799C213.55 124.799 214.018 126.625 214.018 136.225V145.42L219.696 139.674C225.574 133.724 231.385 125.746 237.998 114.658C240.069 111.142 242.34 107.694 243.008 107.018C244.21 105.801 244.21 105.801 244.544 107.018C245.479 110.534 240.937 121.081 235.126 129.194C233.256 131.763 231.719 134.13 231.719 134.4C231.719 134.738 233.723 134.941 236.261 135.008C238.733 135.008 242.273 135.279 244.077 135.482C246.949 135.887 247.416 136.158 247.617 137.578L247.884 139.2L240.202 138.795C235.994 138.524 231.719 138.186 230.65 137.916C228.914 137.578 228.112 138.186 222.167 144.677L215.621 151.843H217.825C219.028 151.843 223.436 151.505 227.645 151.167C235.861 150.423 236.395 150.559 236.395 153.669C236.395 155.156 236.128 155.224 229.916 155.359C220.23 155.562 219.629 155.562 215.955 155.088L212.482 154.615L205.936 159.956C197.786 166.582 193.044 169.354 192.242 168.002C190.572 165.23 190.706 165.23 185.362 167.393C182.557 168.475 178.816 170.165 177.079 171.044C173.339 172.937 162.25 176.453 156.239 177.602C149.826 178.887 147.422 181.862 149.96 185.513C151.296 187.473 154.836 187.473 161.983 185.58C169.197 183.687 176.812 180.239 183.826 175.709L189.771 171.991L196.718 173.411C212.348 176.588 226.643 174.087 238.265 166.109C243.008 162.864 245.68 159.821 251.424 151.167C255.9 144.541 258.839 137.037 260.843 127.571C262.045 121.757 262.045 112.021 260.776 106.68C258.505 96.9443 252.226 86.9381 248.485 86.9381C247.483 86.9381 244.945 88.0199 242.807 89.3045Z" fill="#599128"/>
<path d="M116.227 89.6425C112.754 90.4538 110.683 92.4145 108.612 96.5387C105.272 103.57 105.54 108.708 109.614 114.996C112.152 118.917 116.361 121.081 122.84 121.757C129.92 122.501 132.325 124.597 125.579 124.259C117.296 123.785 110.683 130.276 112.42 137.307C113.088 140.079 117.83 144.812 121.571 146.434C128.184 149.274 136.533 149.004 143.48 145.623L146.419 144.203L152.164 150.423C155.303 153.871 158.777 157.252 159.912 157.928L161.916 159.213L163.72 157.455C164.788 156.441 165.59 155.427 165.59 155.156C165.59 154.886 162.918 151.235 159.578 147.043C156.305 142.851 153.566 138.997 153.566 138.524C153.566 138.051 154.769 135.82 156.238 133.521C159.578 128.248 160.447 125.002 160.113 119.391C159.511 111.21 156.172 107.356 148.757 106.274C147.087 106.004 145.284 105.328 144.883 104.855C144.415 104.314 143.681 103.84 143.146 103.84C142.679 103.84 140.608 101.812 138.47 99.3107C133.527 93.4286 130.789 91.1975 126.647 89.9806C123.04 88.8988 119.834 88.7636 116.227 89.6425ZM127.182 98.2289C131.457 99.7163 134.663 102.353 135.799 105.26C137.001 108.303 137.201 115.064 136.133 117.836L135.398 119.729L131.991 115.672C130.054 113.441 126.247 109.182 123.441 106.207C117.229 99.5811 116.361 98.0937 117.964 97.1472C119.3 96.4035 123.241 96.8091 127.182 98.2289ZM121.17 112.833L123.107 115.537L120.97 115.131C116.494 114.252 114.156 111.345 113.088 105.531L112.62 102.826L115.893 106.477C117.697 108.506 120.034 111.345 121.17 112.833ZM149.559 113.711C153.233 117.092 154.769 123.785 152.832 127.707C151.897 129.464 148.156 133.589 147.488 133.589C147.154 133.589 145.016 131.29 142.679 128.383L138.337 123.244L140.14 120.743C141.075 119.391 142.612 116.686 143.48 114.793C144.415 112.833 145.484 111.278 146.018 111.278C146.486 111.278 148.089 112.359 149.559 113.711ZM137.134 133.115C139.606 135.414 141.543 137.848 141.543 138.457C141.543 140.823 129.854 142.04 125.245 140.079C122.974 139.133 118.699 134.4 119.033 133.251C119.433 131.966 123.842 130.208 126.848 130.208C128.518 130.208 130.321 129.87 130.856 129.532C132.392 128.518 132.525 128.586 137.134 133.115Z" fill="#599128"/>
<path d="M72.9426 96.0653C69.0684 97.7555 66.3297 103.976 67.4653 108.303C68.3337 111.48 72.2747 115.74 75.1469 116.686C77.752 117.565 81.4926 117.092 83.7637 115.604C84.4985 115.131 85.8344 113.509 86.636 112.021C91.7126 102.894 82.2942 91.9411 72.9426 96.0653Z" fill="#235E25"/>
<path d="M284.755 97.0119C282.217 98.567 279.812 103.367 279.812 106.951C279.812 109.993 281.883 113.847 284.689 116.078C290.901 120.946 300.52 115.402 300.52 106.951C300.52 102.826 299.05 99.7839 295.911 97.4176C292.971 95.2541 287.895 95.1189 284.755 97.0119Z" fill="#235E25"/>
<path d="M25.3833 104.449C24.5817 105.531 23.9806 107.018 23.9806 107.829C23.9806 109.655 27.5208 111.548 30.0591 111.007C31.1278 110.804 31.9962 110.872 31.9962 111.21C31.9962 112.292 30.2595 112.494 26.7192 111.818C22.3106 111.007 21.7095 111.277 22.9786 113.103C24.1141 114.793 28.5227 116.281 30.2595 115.604C32.9313 114.59 34.0669 107.897 31.6622 107.897C31.1278 107.897 30.5266 107.559 30.2595 107.086C29.9255 106.545 30.2595 106.477 31.1946 106.68C32.397 107.018 32.6641 106.815 32.6641 105.598C32.6641 103.502 31.395 102.488 28.9235 102.488C27.2536 102.488 26.3852 102.962 25.3833 104.449ZM29.3243 106.883C29.3243 108.032 29.1907 108.1 27.7212 107.491C26.1849 106.883 26.3852 105.869 27.9884 105.869C28.7231 105.869 29.3243 106.342 29.3243 106.883Z" fill="#235E25"/>
<path d="M336.723 104.043C335.922 104.922 335.254 106.274 335.254 107.086C335.254 108.303 335.655 108.573 337.391 108.573C338.527 108.573 339.262 108.776 339.061 109.046C338.794 109.249 338.928 109.858 339.395 110.399C340.531 111.818 339.663 112.089 337.525 110.939C334.987 109.655 334.586 109.655 334.586 111.21C334.586 113.035 337.124 116.01 338.661 116.01C339.395 116.01 340.798 115.199 341.733 114.252C343.27 112.697 343.403 112.156 343.069 108.776C342.468 102.962 339.663 100.866 336.723 104.043Z" fill="#235E25"/>
<path d="M39.0767 105.598C36.8056 107.897 36.8724 109.587 39.277 112.021C41.6817 114.455 43.2849 114.523 45.9567 112.224C48.6286 109.993 48.7622 107.221 46.2907 105.26C43.886 103.3 41.2142 103.435 39.0767 105.598Z" fill="#235E25"/>
<path d="M321.026 105.734C318.622 108.37 320.759 114.658 323.965 114.658C325.836 114.658 329.242 111.075 329.242 109.114C329.242 105.395 323.431 103.029 321.026 105.734Z" fill="#235E25"/>
<path d="M78.086 129.397C75.8149 130.479 75.7481 130.681 75.9485 133.927C76.2156 138.321 79.2883 147.516 83.1625 155.629C95.186 180.577 116.427 201.198 140.875 211.61C153.9 217.222 165.456 219.994 178.214 220.602C200.391 221.616 222.1 216.14 241.338 204.579C247.082 201.131 250.489 198.426 256.968 192.071C261.577 187.609 266.052 182.741 266.988 181.253C267.923 179.766 270.528 176.385 272.866 173.749C275.204 171.18 277.675 167.664 278.343 165.974C279.078 164.351 280.681 161.309 281.95 159.28C286.158 152.452 291.836 137.037 291.836 132.507C291.836 130.681 287.227 128.18 283.954 128.18C282.084 128.18 281.616 128.518 280.48 131.02C279.813 132.642 278.276 136.969 277.141 140.688C271.73 158.266 262.379 171.991 246.681 185.648C233.589 197.074 219.295 204.038 202.796 207.013C194.246 208.568 174.941 208.568 165.924 207.013C158.443 205.728 147.354 202.145 141.276 199.035C130.789 193.693 113.689 180.307 107.744 172.735C98.9934 161.647 94.6516 153.533 89.7086 139.065C88.1055 134.468 86.302 130.141 85.7008 129.464C84.2981 127.842 81.1586 127.842 78.086 129.397Z" fill="#235E25"/>
<path d="M63.1902 245.212C61.7875 246.023 60.0508 249.336 60.0508 251.162C60.0508 253.122 63.1234 256.503 65.3945 256.976C66.7973 257.314 68.3336 256.976 70.4043 255.962C73.5438 254.407 74.3453 252.919 73.9445 249.471C73.5438 245.753 66.7973 243.116 63.1902 245.212Z" fill="#235E25"/>
<path d="M25.9845 245.888C16.8333 247.105 8.21655 253.325 3.67436 261.979C-4.74205 278.205 1.80405 297.88 18.1693 305.655C26.9865 309.847 35.8037 309.373 43.9529 304.303C48.2279 301.598 53.3712 296.865 53.3712 295.649C53.3712 295.175 52.2357 293.688 50.8998 292.403C46.2908 288.076 46.4912 288.144 43.6189 290.916C40.3459 293.958 36.2712 295.851 31.6623 296.325C28.79 296.663 27.4541 296.392 24.4482 294.972C16.9001 291.524 13.5603 286.048 12.8255 276.177C12.4916 271.85 12.6919 270.565 13.8275 268.064C14.5623 266.441 15.3638 264.21 15.631 263.196C16.4326 259.342 28.5228 255.353 35.3361 256.638C39.0099 257.314 44.6209 260.018 45.9568 261.641C47.0923 262.993 48.0275 263.061 48.0275 261.776C48.0275 261.235 49.4302 259.275 51.1002 257.382C52.7701 255.488 53.9724 253.663 53.7052 253.257C53.1709 252.311 45.4224 248.051 42.3498 246.97C38.7427 245.685 31.2615 245.212 25.9845 245.888Z" fill="#235E25"/>
<path d="M219.295 247.646L215.888 247.916L215.421 252.176C214.886 257.855 215.688 304.573 216.423 306.466C216.957 307.886 217.425 308.021 222.434 308.021H227.912L227.444 295.446L226.91 282.803L238.532 283.073L250.088 283.344L250.289 278.07C250.489 271.985 252.159 272.594 237.33 272.864C230.517 272.932 227.043 272.729 226.776 272.256C226.509 271.85 226.509 268.605 226.776 265.089L227.244 258.666H238.332C244.411 258.666 250.088 258.463 250.89 258.26C252.693 257.787 252.961 257.044 253.495 251.567L253.963 247.173L238.332 247.308C229.715 247.375 221.165 247.511 219.295 247.646Z" fill="#235E25"/>
<path d="M343.604 251.837C341.8 252.243 341.6 252.514 341.399 255.286C341.332 256.976 341.065 259.342 340.932 260.492C340.531 262.587 340.397 262.723 337.592 262.723H334.586V267.861V272.999L336.79 272.864C341.6 272.594 341.266 271.647 341.266 284.493C341.266 297.812 341.8 299.773 346.476 304.505C350.216 308.291 353.022 309.103 358.7 308.089C361.171 307.615 363.576 306.804 364.043 306.263C364.912 305.181 364.311 296.798 363.242 296.189C362.908 295.986 361.572 296.054 360.303 296.46C357.096 297.339 354.291 296.325 353.423 293.958C353.022 292.944 352.488 287.671 352.287 282.127L351.82 272.188H357.23H362.641V268.199C362.641 263.196 361.906 262.52 356.629 262.858L352.621 263.061V257.111V251.229L349.148 251.297C347.211 251.364 344.739 251.567 343.604 251.837Z" fill="#235E25"/>
<path d="M107.143 261.979C103.736 262.926 100.53 264.481 98.3922 266.306C97.1899 267.32 96.1211 268.131 95.9207 268.131C95.7204 268.131 95.4532 266.982 95.3196 265.562L95.1192 263.061L89.575 262.858C86.5024 262.723 84.1645 262.926 84.3649 263.264C84.5653 263.534 84.8325 273.473 85.0329 285.304C85.2332 297.068 85.5672 307.007 85.7676 307.413C86.302 308.224 93.9168 308.224 95.52 307.345C96.7223 306.669 96.7891 305.79 96.7891 293.958C96.7891 283.141 96.9895 280.91 98.0582 278.611C100.196 273.946 101.398 273.27 106.942 273.743L111.818 274.149L113.422 268.402C114.29 265.224 114.824 262.52 114.624 262.317C113.956 261.641 109.147 261.438 107.143 261.979Z" fill="#235E25"/>
<path d="M133.194 262.249C128.919 263.737 126.714 265.089 123.642 268.199C115.292 276.65 114.691 288.076 121.972 298.421C125.378 303.288 130.255 306.872 135.064 308.089C141.81 309.779 150.427 307.413 156.639 302.274L159.445 299.908L156.038 296.527C154.168 294.702 152.565 293.147 152.498 293.147C152.364 293.147 150.895 294.093 149.225 295.31C146.62 297.204 145.685 297.474 142.078 297.474C136.801 297.406 133.127 295.649 130.655 291.862C128.384 288.347 127.182 283.344 127.85 279.896C128.518 276.245 132.392 272.594 136.801 271.512C140.675 270.565 142.946 271.106 147.688 274.149L150.694 276.109L153.166 272.864C154.502 271.106 155.571 269.484 155.571 269.213C155.571 268.267 151.095 264.616 148.423 263.331C144.816 261.641 136.734 261.1 133.194 262.249Z" fill="#235E25"/>
<path d="M325.435 262.047C321.761 262.79 319.356 264.142 316.885 266.779L314.881 268.943L314.547 265.968L314.213 263.061L308.735 262.723L303.325 262.385L303.592 282.667C303.793 293.823 304.06 303.897 304.26 305.046C304.527 307.142 304.661 307.21 308.735 307.48C315.749 308.021 315.215 309.103 315.215 293.891C315.215 282.329 315.415 280.301 316.484 277.8C318.154 274.149 319.423 273.54 325.435 273.54H330.378L330.845 270.43C331.046 268.672 331.246 265.968 331.246 264.345C331.246 261.032 331.046 260.965 325.435 262.047Z" fill="#235E25"/>
<path d="M61.6542 262.858C60.8526 264.075 60.5854 289.496 61.1866 299.232L61.721 307.683H67.3987H73.0765L73.6776 301.26C74.3456 293.891 73.1433 264.21 72.0745 263.128C71.0725 262.114 62.2554 261.911 61.6542 262.858Z" fill="#235E25"/>
<path d="M267.255 263.196C262.98 264.751 257.636 270.025 255.432 274.96C253.762 278.814 253.628 279.625 253.895 285.642C254.229 293.282 255.432 296.189 260.575 301.666C265.051 306.466 269.125 308.021 276.94 308.021C282.217 308.021 283.153 307.818 287.561 305.587C290.233 304.303 292.905 302.612 293.573 301.869C294.642 300.652 294.642 300.516 293.506 299.232C292.838 298.421 291.302 297.204 290.099 296.527L287.962 295.175L284.422 296.865C276.673 300.516 267.722 297.744 265.184 290.916L264.449 289.09H268.324C275.003 289.023 290.033 288.414 293.038 288.009L295.844 287.671V283.073C295.844 276.515 294.308 272.661 289.899 268.064C286.96 265.021 285.357 263.94 282.551 263.128C278.076 261.776 271.062 261.844 267.255 263.196ZM280.147 272.797C283.353 274.284 284.355 275.366 284.889 278.138L285.357 280.301H275.204C265.785 280.301 265.117 280.234 265.117 279.017C265.117 275.839 271.062 271.512 275.471 271.512C276.606 271.512 278.677 272.12 280.147 272.797Z" fill="#235E25"/>
<path d="M163.252 263.804C163.519 264.548 163.987 271.647 164.254 279.693C164.721 293.688 164.855 294.364 166.592 297.947C170.466 305.79 173.205 308.021 178.949 308.021C183.024 308.021 185.562 307.007 190.906 303.288L194.98 300.516V303.964V307.345H199.723H204.532L204.065 304.1C203.664 300.652 202.395 269.281 202.595 265.427L202.662 263.061L197.318 262.858L191.975 262.655L192.175 276.921L192.375 291.254L189.77 293.823C186.564 296.865 183.358 297.677 180.018 296.257C175.476 294.364 174.34 290.307 174.207 275.028C174.207 269.484 173.873 264.548 173.605 264.007C173.205 263.399 171.334 262.993 167.861 262.858C163.052 262.587 162.718 262.655 163.252 263.804Z" fill="#235E25"/>
<path d="M234.524 362.785C234.524 363.731 234.658 364.069 234.858 363.596C234.992 363.19 234.992 362.379 234.858 361.906C234.658 361.5 234.524 361.838 234.524 362.785Z" fill="#235E25"/>
</svg>
